<svg width="375" height="1559" viewBox="0 0 375 1559" fill="none" xmlns="http://www.w3.org/2000/svg">
<path d="M0 1541.51L20.8333 1540.13C41.6667 1538.65 83.3333 1536.04 125 1538.73C166.667 1541.51 208.333 1549.85 250 1554.01C291.667 1558.18 333.333 1558.18 354.167 1558.18H375V1533.18H354.167C333.333 1533.18 291.667 1533.18 250 1533.18C208.333 1533.18 166.667 1533.18 125 1533.18C83.3333 1533.18 41.6667 1533.18 20.8333 1533.18H0V1541.51Z" fill="#EB51C2"/>
<rect y="25.95" width="375" height="1507.23" fill="#EB51C2"/>
<path d="M375 17.6166L354.167 18.9968C333.333 20.4812 291.667 23.0854 250 20.4031C208.333 17.6166 166.667 9.28329 125 5.11662C83.3333 0.949951 41.6667 0.949951 20.8333 0.949951H0V25.95H20.8333C41.6667 25.95 83.3333 25.95 125 25.95C166.667 25.95 208.333 25.95 250 25.95C291.667 25.95 333.333 25.95 354.167 25.95H375V17.6166Z" fill="#EB51C2"/>
</svg>
